<svg width="35" height="36" viewBox="0 0 35 36" fill="none" xmlns="http://www.w3.org/2000/svg">
<g clip-path="url(#clip0)">
<path d="M2.18757 2.88502C-0.56285 5.76173 6.68019e-05 8.8176 6.68019e-05 18.1012C6.68019e-05 25.8106 -1.33577 33.5391 5.65548 35.3586C7.83861 35.9239 27.1819 35.9239 29.3622 35.3556C32.273 34.5994 34.6413 32.2219 34.9651 28.0765C35.0103 27.4979 35.0103 8.7148 34.9636 8.12448C34.6194 3.70882 31.9201 1.16398 28.3632 0.648549C27.548 0.529604 27.3847 0.494361 23.2022 0.487018C8.36653 0.494361 5.11444 -0.170852 2.18757 2.88502Z" fill="url(#paint0_linear)"/>
<path d="M17.497 5.09557C12.2018 5.09557 7.17343 4.62125 5.25281 9.58465C4.45948 11.6346 4.57468 14.2969 4.57468 18.1091C4.57468 21.4542 4.46823 24.5982 5.25281 26.632C7.16906 31.5984 12.2382 31.1226 17.4941 31.1226C22.5647 31.1226 27.7928 31.6542 29.7368 26.632C30.5316 24.5615 30.4149 21.9388 30.4149 18.1091C30.4149 13.0253 30.6934 9.74325 28.2449 7.27917C25.7657 4.78278 22.413 5.09557 17.4911 5.09557H17.497ZM16.3391 7.4407C27.3845 7.42308 28.7903 6.18663 28.0145 23.3632C27.7388 29.4382 23.1451 28.7716 17.4984 28.7716C7.2026 28.7716 6.90656 28.4749 6.90656 18.1032C6.90656 7.61104 7.72323 7.44657 16.3391 7.43776V7.4407ZM24.3949 9.6008C23.5389 9.6008 22.8447 10.2998 22.8447 11.1618C22.8447 12.0238 23.5389 12.7228 24.3949 12.7228C25.2509 12.7228 25.9451 12.0238 25.9451 11.1618C25.9451 10.2998 25.2509 9.6008 24.3949 9.6008ZM17.497 11.4261C13.8322 11.4261 10.8616 14.4188 10.8616 18.1091C10.8616 21.7993 13.8322 24.7906 17.497 24.7906C21.1618 24.7906 24.1309 21.7993 24.1309 18.1091C24.1309 14.4188 21.1618 11.4261 17.497 11.4261ZM17.497 13.7712C23.1918 13.7712 23.1991 22.4469 17.497 22.4469C11.8036 22.4469 11.7949 13.7712 17.497 13.7712Z" fill="white"/>
</g>
<defs>
<linearGradient id="paint0_linear" x1="2.25468" y1="33.4791" x2="34.9761" y2="5.35436" gradientUnits="userSpaceOnUse">
<stop stop-color="#FFDD55"/>
<stop offset="0.5" stop-color="#FF543E"/>
<stop offset="1" stop-color="#C837AB"/>
</linearGradient>
<clipPath id="clip0">
<rect y="0.486328" width="35" height="35.2431" rx="17.5" fill="white"/>
</clipPath>
</defs>
</svg>
