<svg width="35" height="36" viewBox="0 0 35 36" fill="none" xmlns="http://www.w3.org/2000/svg">
<g clip-path="url(#clip0)">
<path d="M17.5 0.486328C7.83494 0.486328 0 8.37568 0 18.1079C0 27.84 7.83494 35.7294 17.5 35.7294C27.1651 35.7294 35 27.84 35 18.1079C35 8.37568 27.1651 0.486328 17.5 0.486328Z" fill="#40B3E0"/>
<path d="M26.0154 10.6227L22.8896 26.4916C22.8896 26.4916 22.4525 27.5921 21.2504 27.0639L14.0373 21.4955L11.4145 20.219L6.99934 18.7223C6.99934 18.7223 6.32176 18.4803 6.25613 17.952C6.19051 17.4238 7.02121 17.1377 7.02121 17.1377L24.5726 10.2047C24.5726 10.2047 26.0153 9.56651 26.0153 10.623" fill="white"/>
<path d="M13.4831 26.313C13.4831 26.313 13.2726 26.2931 13.0101 25.4567C12.748 24.6203 11.4146 20.2185 11.4146 20.2185L22.0154 13.4397C22.0154 13.4397 22.6275 13.0656 22.6057 13.4397C22.6057 13.4397 22.7149 13.5058 22.3869 13.8139C22.0592 14.1222 14.0594 21.3631 14.0594 21.3631" fill="#D2E5F1"/>
<path d="M16.8029 23.6306L13.9499 26.2498C13.9499 26.2498 13.7268 26.4203 13.4829 26.3134L14.0292 21.4482" fill="#B5CFE4"/>
</g>
<defs>
<clipPath id="clip0">
<rect width="35" height="35.2431" fill="white" transform="translate(0 0.486328)"/>
</clipPath>
</defs>
</svg>
