<svg width="35" height="36" viewBox="0 0 35 36" fill="none" xmlns="http://www.w3.org/2000/svg">
<g clip-path="url(#clip0)">
<path d="M17.5 35.7294C27.165 35.7294 35 27.84 35 18.1079C35 8.37576 27.165 0.486328 17.5 0.486328C7.83502 0.486328 0 8.37576 0 18.1079C0 27.84 7.83502 35.7294 17.5 35.7294Z" fill="#4D76A1"/>
<path fill-rule="evenodd" clip-rule="evenodd" d="M16.8389 25.8368H18.2124C18.2124 25.8368 18.6273 25.7909 18.8391 25.561C19.0341 25.3499 19.0278 24.9534 19.0278 24.9534C19.0278 24.9534 19.001 23.0976 19.8564 22.8243C20.6996 22.5551 21.7824 24.618 22.9301 25.4111C23.7979 26.0114 24.4574 25.8798 24.4574 25.8798L27.5261 25.8368C27.5261 25.8368 29.1314 25.7372 28.3702 24.4662C28.3078 24.3623 27.9269 23.5261 26.0886 21.8078C24.1645 20.0095 24.4221 20.3004 26.74 17.1896C28.1516 15.2952 28.7159 14.1386 28.5396 13.6432C28.3715 13.1714 27.3333 13.2961 27.3333 13.2961L23.8781 13.3178C23.8781 13.3178 23.622 13.2826 23.432 13.397C23.2464 13.5091 23.1269 13.7704 23.1269 13.7704C23.1269 13.7704 22.5801 15.2364 21.8507 16.4832C20.3121 19.1139 19.697 19.2528 19.4455 19.0894C18.8606 18.7087 19.0066 17.56 19.0066 16.7439C19.0066 14.1945 19.3906 13.1315 18.2589 12.8564C17.8833 12.7649 17.6069 12.7046 16.6464 12.6949C15.4135 12.682 14.37 12.6987 13.7792 12.9902C13.3861 13.184 13.0829 13.6159 13.2676 13.6407C13.4959 13.6715 14.0132 13.7811 14.2874 14.1571C14.6414 14.6421 14.629 15.7315 14.629 15.7315C14.629 15.7315 14.8324 18.7326 14.1539 19.1055C13.6881 19.3612 13.0492 18.8391 11.6776 16.4524C10.9747 15.2298 10.4441 13.8785 10.4441 13.8785C10.4441 13.8785 10.3418 13.6259 10.1593 13.4909C9.9378 13.3272 9.62834 13.2751 9.62834 13.2751L6.34503 13.2967C6.34503 13.2967 5.85214 13.3106 5.67121 13.5264C5.51024 13.7183 5.65842 14.1153 5.65842 14.1153C5.65842 14.1153 8.22892 20.171 11.1394 23.2226C13.8082 26.0205 16.8389 25.8368 16.8389 25.8368Z" fill="white"/>
</g>
<defs>
<clipPath id="clip0">
<rect width="35" height="35.2431" fill="white" transform="translate(0 0.486328)"/>
</clipPath>
</defs>
</svg>
